<svg width="16" height="16" viewBox="0 0 16 16" fill="none" xmlns="http://www.w3.org/2000/svg">
<path d="M5.25167 15.2335C5.19132 15.2335 5.13203 15.2177 5.07967 15.1877C5.0273 15.1578 4.98369 15.1146 4.95314 15.0626C3.65925 12.8582 0.211389 8.16681 0.176705 8.11966C0.127442 8.0527 0.103921 7.97025 0.110442 7.88737C0.116963 7.8045 0.15309 7.72674 0.21222 7.66831L1.27207 6.62102C1.32965 6.56412 1.40535 6.5292 1.48601 6.52234C1.56667 6.51547 1.64719 6.53709 1.71356 6.58343L5.17949 9.0036C7.48377 6.04343 9.62515 4.00053 11.0326 2.79682C12.6102 1.44741 13.6132 0.841049 13.6551 0.81578C13.7089 0.783484 13.7705 0.766422 13.8333 0.766418H15.5478C15.618 0.766407 15.6865 0.787726 15.7443 0.82755C15.8021 0.867374 15.8464 0.92382 15.8714 0.989406C15.8964 1.05499 15.9008 1.12662 15.8841 1.19479C15.8675 1.26296 15.8305 1.32445 15.7781 1.37111C13.2362 3.63496 10.5935 7.23195 8.82425 9.85071C6.90092 12.6973 5.56573 15.0354 5.55247 15.0587C5.52242 15.1114 5.47901 15.1553 5.42661 15.186C5.37422 15.2167 5.31467 15.2331 5.25395 15.2335L5.25167 15.2335Z" fill="white"/>
</svg>
